<svg width="40" height="40" viewBox="0 0 40 40" fill="none" xmlns="http://www.w3.org/2000/svg">
<g filter="url(#filter0_i_334_639)">
<rect width="40" height="40" rx="12" fill="#61C5E5"/>
<path fill-rule="evenodd" clip-rule="evenodd" d="M27.4495 31.4995L27.4481 31.5006C27.4486 31.5002 27.449 31.4999 27.4495 31.4995Z" fill="white"/>
<path fill-rule="evenodd" clip-rule="evenodd" d="M18.1343 32.9019C18.1348 32.9019 18.1354 32.9019 18.1359 32.9019C18.1363 32.9019 18.1377 32.9019 18.138 32.9019L18.1359 32.9019L18.1343 32.9019Z" fill="white"/>
<path fill-rule="evenodd" clip-rule="evenodd" d="M29.0029 30.4917L29.0342 30.4697C28.9695 30.5015 28.9248 30.5244 29.0029 30.4917Z" fill="white"/>
<path d="M19.9786 6.31459C21.4455 6.31019 22.9111 6.41466 24.3624 6.62806C25.0051 6.70602 25.7297 6.92982 26.3448 7.14955C28.4965 7.88072 30.5955 9.56556 31.9347 11.3927C33.0378 12.8977 33.8115 14.7846 34.1232 16.6212C34.2274 17.2355 34.247 17.8839 34.2657 18.5089L34.2677 18.5792V18.5841L34.2687 18.6251C34.3295 20.6682 34.321 22.596 33.6466 24.5538C33.0724 26.2204 32.2675 27.5832 31.088 28.8937C30.9114 29.0898 30.4075 29.6231 30.2091 29.754C29.3649 30.5441 28.1613 31.4043 27.0821 31.8185C26.0297 32.3617 24.4811 32.7006 23.3058 32.84C22.8976 32.8884 22.31 32.8982 21.8243 32.9064C21.7139 32.9082 21.6084 32.9101 21.5118 32.9122C20.4561 32.9446 19.3995 32.943 18.3439 32.9074C18.2835 32.9057 18.2184 32.904 18.1534 32.9025H18.1515L18.1378 32.9015H18.131C17.4112 32.8842 16.4645 32.8617 15.8331 32.6515C15.4724 32.575 15.0982 32.4471 14.7296 32.3214C14.486 32.2384 14.2439 32.1563 14.0099 32.09C13.0558 32.9259 11.3528 33.6402 10.0724 33.6281C9.58241 33.7058 8.92006 33.6768 8.46008 33.6154C6.5928 33.3659 6.54861 31.9057 7.3673 30.5441C7.48568 30.3472 7.79395 29.6407 7.88586 29.3966C7.98888 29.1148 8.0547 28.8206 8.08019 28.5216C8.16179 27.6112 7.93287 27.2646 7.59484 26.754C7.47954 26.5799 7.35156 26.3861 7.21886 26.1447C6.64334 25.0762 6.2047 23.9392 5.91418 22.7609C5.63 21.6294 5.65246 18.0929 5.83703 16.8829C6.34005 13.6201 8.10336 10.6844 10.7472 8.70716C11.9991 7.79183 13.4165 7.12749 14.921 6.75111C15.9273 6.50128 17.34 6.40523 18.38 6.37806C18.6069 6.37213 18.8403 6.35981 19.0734 6.34779C19.3783 6.33206 19.6841 6.31684 19.9786 6.31459ZM20.587 14.5158C19.8256 14.2538 19.3815 14.3142 19.0431 15.0675C18.9323 15.3141 18.8272 15.6172 18.7159 15.9357C18.466 16.6513 18.1873 17.4464 17.7609 17.8663C17.4775 18.1453 16.9104 18.3434 16.3907 18.5245C16.1085 18.6229 15.8397 18.7167 15.6388 18.8156C15.5631 18.852 15.4586 18.8809 15.3527 18.9103C15.2436 18.9405 15.1328 18.9713 15.0509 19.0109C14.9583 19.0558 14.8804 19.1174 14.798 19.1818C14.7067 19.2531 14.6098 19.3283 14.4835 19.3898C14.3665 19.8527 14.317 20.1304 14.4747 20.6027C14.4938 20.6161 14.5132 20.6299 14.5314 20.6427C14.7178 20.7742 14.8641 20.8771 15.0978 20.9855C15.2956 21.0772 15.5927 21.1866 15.921 21.3078C16.6543 21.5784 17.5464 21.9085 17.8566 22.2316C18.1632 22.6742 18.3639 23.1903 18.5607 23.6974C18.6344 23.8875 18.708 24.0766 18.7862 24.2599C18.8404 24.3868 18.88 24.5147 18.9191 24.6398C19.0108 24.9334 19.0988 25.2133 19.3575 25.4415C19.7073 25.7501 20.1688 25.6801 20.5626 25.5382C20.9716 25.0156 21.1695 24.4416 21.3663 23.8693C21.5589 23.3091 21.7509 22.751 22.1398 22.2453C22.2127 22.1504 22.3622 22.0643 22.4962 21.9874C22.5844 21.9368 22.6661 21.89 22.715 21.8468C22.8449 21.7962 22.9746 21.7453 23.1036 21.6945C23.5313 21.5259 23.9566 21.3584 24.3917 21.2091C24.7772 21.0768 25.3595 20.8608 25.5294 20.464C25.6757 20.1222 25.5985 19.722 25.4718 19.3888C24.9534 19.0037 23.9089 18.6111 23.2804 18.4201C22.8924 18.2711 22.5638 18.0785 22.212 17.8732C22.1779 17.8532 22.1432 17.8338 22.1085 17.8136C22.0946 17.7878 22.0806 17.7614 22.0665 17.7355C21.9063 17.4399 21.7423 17.1379 21.6114 16.8302C21.5188 16.6124 21.4338 16.3655 21.3468 16.1115C21.1483 15.5319 20.937 14.9138 20.587 14.5158Z" fill="white"/>
</g>
<defs>
<filter id="filter0_i_334_639" x="0" y="-2" width="40" height="42" filterUnits="userSpaceOnUse" color-interpolation-filters="sRGB">
<feFlood flood-opacity="0" result="BackgroundImageFix"/>
<feBlend mode="normal" in="SourceGraphic" in2="BackgroundImageFix" result="shape"/>
<feColorMatrix in="SourceAlpha" type="matrix" values="0 0 0 0 0 0 0 0 0 0 0 0 0 0 0 0 0 0 127 0" result="hardAlpha"/>
<feMorphology radius="2" operator="erode" in="SourceAlpha" result="effect1_innerShadow_334_639"/>
<feOffset dy="-2"/>
<feGaussianBlur stdDeviation="2"/>
<feComposite in2="hardAlpha" operator="arithmetic" k2="-1" k3="1"/>
<feColorMatrix type="matrix" values="0 0 0 0 1 0 0 0 0 1 0 0 0 0 1 0 0 0 0.2 0"/>
<feBlend mode="normal" in2="shape" result="effect1_innerShadow_334_639"/>
</filter>
</defs>
</svg>
