<svg id="Apron ai " width="24" height="24" viewBox="3.5 2 17 20.5" fill="none" xmlns="http://www.w3.org/2000/svg">
<path transform="translate(3.75, 6.25)" fill-rule="evenodd" clip-rule="evenodd" d="M7.16843 9.53357C6.85447 9.53357 6.57374 9.33802 6.46492 9.04353L6.36391 8.77015C6.05881 7.94442 5.4089 7.29378 4.5851 6.98852L4.31213 6.88734C4.01799 6.77833 3.82277 6.49778 3.82277 6.18409C3.82277 5.8704 4.01799 5.58985 4.31213 5.48084L4.58506 5.37968C5.40886 5.07441 6.0588 4.42378 6.3639 3.59805C6.3639 3.59805 6.3639 3.59805 6.3639 3.59805L6.46491 3.32465C6.57373 3.03014 6.85447 2.83458 7.16843 2.83458C7.48239 2.83458 7.76313 3.03014 7.87195 3.32465L7.97296 3.59805C7.97296 3.59805 7.97296 3.59805 7.97296 3.59805C8.27806 4.42377 8.92795 5.07439 9.75174 5.37966C9.75175 5.37966 9.75174 5.37966 9.75174 5.37966L10.0247 5.48082C10.3189 5.58981 10.5142 5.87038 10.5142 6.18409C10.5142 6.4978 10.3189 6.77837 10.0247 6.88737L9.75176 6.98852C9.75177 6.98851 9.75175 6.98852 9.75176 6.98852C8.92797 7.29379 8.27806 7.94441 7.97296 8.77013L7.87194 9.04353C7.76312 9.33802 7.48238 9.53357 7.16843 9.53357ZM8.11709 6.18409C7.75539 5.91669 7.43558 5.59657 7.16843 5.23458C6.90128 5.59657 6.58147 5.91669 6.21977 6.18409C6.58147 6.45149 6.90128 6.77161 7.16843 7.1336C7.43558 6.77161 7.75539 6.45149 8.11709 6.18409Z" fill="#FFFFFF"></path>
<path transform="translate(2.5, 7)" fill-rule="evenodd" clip-rule="evenodd" d="M12.4791 10.7756C12.1489 10.7756 11.8575 10.5597 11.7615 10.2437C11.6625 9.91787 11.408 9.66346 11.0837 9.56459C10.7681 9.46838 10.5524 9.17716 10.5524 8.84719C10.5524 8.51721 10.7681 8.22599 11.0837 8.12978C11.408 8.03091 11.6625 7.7765 11.7615 7.45065C11.8575 7.13471 12.1489 6.91874 12.4791 6.91874C12.8093 6.91874 13.1007 7.13471 13.1967 7.45065C13.2957 7.77649 13.5501 8.03091 13.8744 8.12978C14.1901 8.22599 14.4058 8.51721 14.4058 8.84719C14.4058 9.17716 14.1901 9.46838 13.8744 9.56459C13.5501 9.66346 13.2957 9.91788 13.1967 10.2437C13.1007 10.5597 12.8093 10.7756 12.4791 10.7756Z" fill="#FFFFFF"></path>
<path d="M14.8022 3C14.8022 6.85004 15.1856 9.04019 18.5579 10.9394C19.1592 11.278 19.5192 11.928 19.4715 12.6159L19.0113 19.2213C18.95 20.1038 18.2563 20.8122 17.3747 20.8773C14.522 21.0875 9.48591 21.0262 6.55921 20.7042C5.70008 20.6098 5.03554 19.9151 4.97619 19.053L4.52765 12.6159C4.47998 11.928 4.83998 11.278 5.44127 10.9394C8.81358 9.04019 9.19693 6.85004 9.19693 3" stroke="#FFFFFF" stroke-width="1.5" stroke-linecap="round" stroke-linejoin="round"></path>
<path d="M8.93164 6.58405H15.0682" stroke="#FFFFFF" stroke-width="1.5" stroke-linecap="round" stroke-linejoin="round"></path>
</svg>